<svg id="Layer_1" data-name="Layer 1" xmlns="http://www.w3.org/2000/svg" viewBox="0 0 363 24"><defs><style>.cls-1{fill:none;}.cls-2{fill:#fff;}</style></defs><rect class="cls-1" width="363" height="24"/><path class="cls-2" d="M14.1,1V23.1H8.3V13.8H6.6v9.3H.9V1H6.7V9H8.4V1Z" transform="translate(1.7 -0.1)"/><path class="cls-2" d="M28.9,5V23.2H23.3l.1-1.5A3.76,3.76,0,0,1,22,23.1a4.44,4.44,0,0,1-3.9.1A3.45,3.45,0,0,1,16.9,22a4.42,4.42,0,0,1-.5-1.5,22.88,22.88,0,0,1-.1-3.1V5h5.5V17.4a20.9,20.9,0,0,0,.1,2.5c.1.3.3.4.7.4s.7-.1.7-.4a11.54,11.54,0,0,0,.1-2.6V5Z" transform="translate(1.7 -0.1)"/><path class="cls-2" d="M31,1h5.7a18.4,18.4,0,0,1,4.1.4,4.81,4.81,0,0,1,2.3,1.7A7.62,7.62,0,0,1,44,7.3a4.31,4.31,0,0,1-.6,2.7A4.24,4.24,0,0,1,41,11.2a4.1,4.1,0,0,1,2.7,1.5,6,6,0,0,1,.7,3.2v2a7.39,7.39,0,0,1-.5,3.3,2.94,2.94,0,0,1-1.6,1.5,17.53,17.53,0,0,1-4.6.4H31Zm5.8,3.8V9.7h.6c.6,0,.9-.1,1.1-.4a6.52,6.52,0,0,0,.2-2.4,3.18,3.18,0,0,0-.2-1.4A1.21,1.21,0,0,0,38,5a5,5,0,0,0-1.2-.2Zm0,8.4v6.2a2.93,2.93,0,0,0,1.6-.4,2.49,2.49,0,0,0,.3-1.7v-2a2.49,2.49,0,0,0-.3-1.7,3.17,3.17,0,0,0-1.6-.4Z" transform="translate(1.7 -0.1)"/><path class="cls-2" d="M64.2,1V23.1h-5V8.1l-2,15H53.6L51.5,8.6V23.2h-5V1H54c.2,1.3.5,2.9.7,4.7l.8,5.6L56.8,1Z" transform="translate(1.7 -0.1)"/><path class="cls-2" d="M76.5,1l3.3,22.1H73.9l-.3-4H71.5l-.3,4h-6L68.2,1Zm-3,14.3q-.45-3.75-.9-9.3c-.6,4.2-1,7.3-1.1,9.3Z" transform="translate(1.7 -0.1)"/><path class="cls-2" d="M80.8,1h5.8a14.72,14.72,0,0,1,3.6.4,3.68,3.68,0,0,1,1.9,1.1A3.5,3.5,0,0,1,93,4.2a15.64,15.64,0,0,1,.2,3.1V9.2a8.28,8.28,0,0,1-.4,3.1,2.94,2.94,0,0,1-1.6,1.5,6.55,6.55,0,0,1-3.1.5H86.5v8.9H80.7V1Zm5.7,3.8v5.6H87a1.5,1.5,0,0,0,1.1-.4,2.32,2.32,0,0,0,.3-1.6V6.7A2,2,0,0,0,88,5.2,2.41,2.41,0,0,0,86.5,4.8Z" transform="translate(1.7 -0.1)"/></svg>